<svg width="230" height="43" viewBox="0 0 230 43" fill="none" xmlns="http://www.w3.org/2000/svg">
<path d="M16.1749 16.792L15.428 17.457L15.4328 17.4624L15.4377 17.4677L16.1749 16.792ZM16.1749 31.948L15.4241 31.2874L15.4192 31.2931L16.1749 31.948ZM3.17888 32.056L2.43201 32.721L2.43661 32.7261L3.17888 32.056ZM3.17888 16.864L2.42814 16.2034L2.42319 16.2091L3.17888 16.864ZM7.85888 20.032L8.77269 20.4381V20.4381L7.85888 20.032ZM7.82288 28.852L6.8998 29.2366L6.90633 29.2523L6.9134 29.2678L7.82288 28.852ZM11.5309 28.816L10.6171 28.4099L11.5309 28.816ZM11.5309 20.032L10.617 20.4382L10.6214 20.4478L11.5309 20.032ZM9.69488 15.164C12.2248 15.164 14.0917 15.9562 15.428 17.457L16.9217 16.127C15.1381 14.1238 12.6849 13.164 9.69488 13.164V15.164ZM15.4377 17.4677C16.7918 18.9449 17.5509 21.2065 17.5509 24.424H19.5509C19.5509 20.9215 18.726 18.0951 16.912 16.1163L15.4377 17.4677ZM17.5509 24.424C17.5509 27.4808 16.7996 29.7244 15.4242 31.2874L16.9256 32.6086C18.7182 30.5716 19.5509 27.7992 19.5509 24.424H17.5509ZM15.4192 31.2931C14.0802 32.8381 12.2159 33.648 9.69488 33.648V35.648C12.6939 35.648 15.1496 34.6579 16.9306 32.6029L15.4192 31.2931ZM9.69488 33.648C7.13345 33.648 5.25453 32.8629 3.92114 31.3859L2.43661 32.7261C4.22322 34.7051 6.6883 35.648 9.69488 35.648V33.648ZM3.92572 31.391C2.58714 29.8877 1.83888 27.6077 1.83888 24.388H-0.161125C-0.161125 27.8883 0.650607 30.7203 2.43203 32.721L3.92572 31.391ZM1.83888 24.388C1.83888 21.3277 2.58001 19.0819 3.93456 17.5189L2.42319 16.2091C0.657743 18.2461 -0.161125 21.0163 -0.161125 24.388H1.83888ZM3.92959 17.5246C5.29414 15.974 7.17418 15.164 9.69488 15.164V13.164C6.69557 13.164 4.23161 14.154 2.42816 16.2034L3.92959 17.5246ZM9.69488 17.736C9.09447 17.736 8.52406 17.8937 8.02919 18.243C7.54183 18.587 7.19136 19.0717 6.94506 19.6259L8.77269 20.4381C8.91039 20.1283 9.05792 19.965 9.18256 19.877C9.29969 19.7943 9.45528 19.736 9.69488 19.736V17.736ZM6.94506 19.6259C6.46916 20.6966 6.28288 22.3332 6.28288 24.388H8.28288C8.28288 22.3628 8.48059 21.0954 8.77269 20.4381L6.94506 19.6259ZM6.28288 24.388C6.28288 26.5073 6.45653 28.1728 6.8998 29.2366L8.74595 28.4674C8.46922 27.8032 8.28288 26.4927 8.28288 24.388H6.28288ZM6.9134 29.2678C7.1646 29.8173 7.52412 30.2925 8.0205 30.6266C8.5211 30.9635 9.09439 31.112 9.69488 31.112V29.112C9.43136 29.112 9.26065 29.0505 9.13725 28.9674C9.00963 28.8815 8.86515 28.7267 8.73235 28.4362L6.9134 29.2678ZM9.69488 31.112C10.2953 31.112 10.8657 30.9543 11.3606 30.605C11.8479 30.261 12.1984 29.7763 12.4447 29.2221L10.6171 28.4099C10.4794 28.7197 10.3318 28.883 10.2072 28.971C10.0901 29.0537 9.93447 29.112 9.69488 29.112V31.112ZM12.4447 29.2221C12.921 28.1505 13.1069 26.5009 13.1069 24.424H11.1069C11.1069 26.4751 10.9088 27.7535 10.6171 28.4099L12.4447 29.2221ZM13.1069 24.424C13.1069 22.3291 12.9224 20.6707 12.4403 19.6162L10.6214 20.4478C10.9073 21.0733 11.1069 22.3429 11.1069 24.424H13.1069ZM12.4447 19.6259C12.1984 19.0717 11.8479 18.587 11.3606 18.243C10.8657 17.8937 10.2953 17.736 9.69488 17.736V19.736C9.93447 19.736 10.0901 19.7943 10.2072 19.877C10.3318 19.965 10.4794 20.1283 10.6171 20.4381L12.4447 19.6259ZM32.7397 33.1L33.3397 33.9L34.02 33.3898L33.6256 32.6363L32.7397 33.1ZM30.3637 34.252L30.0856 33.2914L30.0787 33.2935L30.3637 34.252ZM22.9477 32.92L22.196 33.5796L22.2028 33.5872L22.9477 32.92ZM21.3997 19.132H22.3997V18.132H21.3997V19.132ZM19.3117 19.132H18.3117V20.132H19.3117V19.132ZM19.3117 14.812V13.812H18.3117V14.812H19.3117ZM21.3997 14.812V15.812H22.3997V14.812H21.3997ZM21.3997 10.744L21.2798 9.7512L20.3997 9.85743V10.744H21.3997ZM27.6637 9.988H28.6637V8.86005L27.5438 8.9952L27.6637 9.988ZM27.6637 14.812H26.6637V15.812H27.6637V14.812ZM31.5517 14.812L32.5418 14.9523L32.7033 13.812H31.5517V14.812ZM30.9397 19.132V20.132H31.808L31.9298 19.2723L30.9397 19.132ZM27.6637 19.132V18.132H26.6637V19.132H27.6637ZM30.7237 29.248L31.6096 28.7843L31.1472 27.9007L30.2623 28.3608L30.7237 29.248ZM32.1397 32.3C31.5761 32.7226 30.8965 33.0567 30.0856 33.2914L30.6417 35.2126C31.6548 34.9193 32.5592 34.4854 33.3397 33.9L32.1397 32.3ZM30.0787 33.2935C29.2817 33.5304 28.4776 33.648 27.6637 33.648V35.648C28.6737 35.648 29.6696 35.5016 30.6486 35.2105L30.0787 33.2935ZM27.6637 33.648C25.7276 33.648 24.4729 33.1239 23.6925 32.2528L22.2028 33.5872C23.4864 35.0201 25.3757 35.648 27.6637 35.648V33.648ZM23.6993 32.2604C22.8777 31.3242 22.3997 29.9344 22.3997 27.952H20.3997C20.3997 30.2416 20.9536 32.1638 22.196 33.5796L23.6993 32.2604ZM22.3997 27.952V19.132H20.3997V27.952H22.3997ZM21.3997 18.132H19.3117V20.132H21.3997V18.132ZM20.3117 19.132V14.812H18.3117V19.132H20.3117ZM19.3117 15.812H21.3997V13.812H19.3117V15.812ZM22.3997 14.812V10.744H20.3997V14.812H22.3997ZM21.5195 11.7368L27.7835 10.9808L27.5438 8.9952L21.2798 9.7512L21.5195 11.7368ZM26.6637 9.988V14.812H28.6637V9.988H26.6637ZM27.6637 15.812H31.5517V13.812H27.6637V15.812ZM30.5615 14.6717L29.9495 18.9917L31.9298 19.2723L32.5418 14.9523L30.5615 14.6717ZM30.9397 18.132H27.6637V20.132H30.9397V18.132ZM26.6637 19.132V27.88H28.6637V19.132H26.6637ZM26.6637 27.88C26.6637 28.5912 26.7947 29.3079 27.2203 29.8645C27.6847 30.4717 28.3629 30.716 29.0677 30.716V28.716C28.9414 28.716 28.8777 28.6953 28.853 28.6846C28.8342 28.6764 28.8235 28.6685 28.809 28.6495C28.7666 28.5941 28.6637 28.3928 28.6637 27.88H26.6637ZM29.0677 30.716C29.7776 30.716 30.4891 30.4971 31.185 30.1352L30.2623 28.3608C29.7582 28.6229 29.3657 28.716 29.0677 28.716V30.716ZM29.8377 29.7117L31.8537 33.5637L33.6256 32.6363L31.6096 28.7843L29.8377 29.7117ZM49.2504 30.472L50.2057 30.7679L50.476 29.8952L49.6312 29.5473L49.2504 30.472ZM47.9904 34.54L47.9091 35.5367L48.7084 35.6019L48.9457 34.8359L47.9904 34.54ZM45.1104 33.82L44.6174 34.69L44.6344 34.6997L44.6518 34.7086L45.1104 33.82ZM43.3824 31.876L44.2817 31.4385L43.5075 29.8472L42.5437 31.3314L43.3824 31.876ZM34.0224 32.992L34.753 32.3091L34.0224 32.992ZM34.5984 23.812L35.2133 24.6006L35.2151 24.5992L34.5984 23.812ZM42.0864 22.12V23.12H43.0864V22.12H42.0864ZM41.5464 19.204L40.8169 19.8879L40.8169 19.8879L41.5464 19.204ZM35.0664 19.6L34.1212 19.9265L34.4506 20.88L35.4012 20.5423L35.0664 19.6ZM33.6984 15.64L33.2846 14.7296L32.4561 15.1063L32.7532 15.9665L33.6984 15.64ZM37.1184 14.56L37.3109 15.5413L37.3181 15.5399L37.3254 15.5383L37.1184 14.56ZM46.3704 15.856L45.6927 16.5914L45.7007 16.5986L46.3704 15.856ZM41.2224 29.86L40.6311 29.0536L40.6177 29.0634L40.6046 29.0737L41.2224 29.86ZM42.0864 28.816L42.9809 29.2632L43.0864 29.0521V28.816H42.0864ZM42.0864 25.468H43.0864V24.468H42.0864V25.468ZM39.2424 26.116L39.9291 26.843L39.9302 26.842L39.2424 26.116ZM38.9904 29.68L39.8145 29.1135V29.1135L38.9904 29.68ZM47.2064 28.384C47.2064 29.0607 47.2743 29.7277 47.528 30.2352L49.3169 29.3408C49.2826 29.2723 49.2064 29.0033 49.2064 28.384H47.2064ZM47.528 30.2352C47.8143 30.8077 48.3213 31.1709 48.8697 31.3967L49.6312 29.5473C49.3636 29.4371 49.3186 29.3443 49.3169 29.3408L47.528 30.2352ZM48.2952 30.1761L47.0352 34.2441L48.9457 34.8359L50.2057 30.7679L48.2952 30.1761ZM48.0718 33.5433C46.9775 33.454 46.1581 33.2354 45.5691 32.9314L44.6518 34.7086C45.5508 35.1726 46.6514 35.434 47.9091 35.5367L48.0718 33.5433ZM45.6035 32.95C45.0913 32.6597 44.6426 32.1804 44.2817 31.4385L42.4832 32.3135C42.9863 33.3476 43.6896 34.1642 44.6174 34.69L45.6035 32.95ZM42.5437 31.3314C41.5358 32.8837 40.118 33.648 38.1624 33.648V35.648C40.7669 35.648 42.8291 34.5643 44.2211 32.4206L42.5437 31.3314ZM38.1624 33.648C36.6677 33.648 35.568 33.181 34.753 32.3091L33.2919 33.6749C34.5409 35.011 36.2011 35.648 38.1624 35.648V33.648ZM34.753 32.3091C33.9263 31.4248 33.4744 30.2339 33.4744 28.636H31.4744C31.4744 30.6381 32.0546 32.3512 33.2919 33.6749L34.753 32.3091ZM33.4744 28.636C33.4744 26.7712 34.0847 25.4805 35.2133 24.6006L33.9836 23.0234C32.2802 24.3515 31.4744 26.2768 31.4744 28.636H33.4744ZM35.2151 24.5992C36.412 23.6616 38.2344 23.12 40.8264 23.12V21.12C37.9944 21.12 35.6649 21.7064 33.9818 23.0248L35.2151 24.5992ZM40.8264 23.12H42.0864V21.12H40.8264V23.12ZM43.0864 22.12V21.4H41.0864V22.12H43.0864ZM43.0864 21.4C43.0864 20.2928 42.9194 19.2064 42.276 18.5201L40.8169 19.8879C40.8934 19.9696 41.0864 20.3472 41.0864 21.4H43.0864ZM42.276 18.5201C41.6171 17.8172 40.5732 17.628 39.5304 17.628V19.628C40.4557 19.628 40.7558 19.8228 40.8169 19.8879L42.276 18.5201ZM39.5304 17.628C38.2127 17.628 36.6004 17.9938 34.7317 18.6577L35.4012 20.5423C37.1805 19.9102 38.5441 19.628 39.5304 19.628V17.628ZM36.0116 19.2735L34.6436 15.3135L32.7532 15.9665L34.1212 19.9265L36.0116 19.2735ZM34.1122 16.5504C35.0924 16.1049 36.1575 15.7675 37.3109 15.5413L36.926 13.5787C35.6314 13.8325 34.4165 14.2151 33.2846 14.7296L34.1122 16.5504ZM37.3254 15.5383C38.5156 15.2866 39.6217 15.164 40.6464 15.164V13.164C39.4631 13.164 38.2173 13.3054 36.9115 13.5816L37.3254 15.5383ZM40.6464 15.164C43.1219 15.164 44.733 15.7068 45.6928 16.5914L47.0481 15.1206C45.5599 13.7492 43.355 13.164 40.6464 13.164V15.164ZM45.7007 16.5986C46.6374 17.4434 47.2064 18.8473 47.2064 21.04H49.2064C49.2064 18.5287 48.5515 16.4766 47.0402 15.1134L45.7007 16.5986ZM47.2064 21.04V28.384H49.2064V21.04H47.2064ZM40.1064 31.256C40.7496 31.256 41.337 31.0417 41.8403 30.6463L40.6046 29.0737C40.4358 29.2063 40.2792 29.256 40.1064 29.256V31.256ZM41.8138 30.6664C42.3122 30.3009 42.6998 29.8254 42.9809 29.2632L41.192 28.3688C41.0411 28.6706 40.8526 28.8911 40.6311 29.0536L41.8138 30.6664ZM43.0864 28.816V25.468H41.0864V28.816H43.0864ZM42.0864 24.468H41.3664V26.468H42.0864V24.468ZM41.3664 24.468C40.2821 24.468 39.2739 24.7087 38.5547 25.39L39.9302 26.842C40.123 26.6593 40.5308 26.468 41.3664 26.468V24.468ZM38.5558 25.389C37.8428 26.0624 37.5944 27.0327 37.5944 28.06H39.5944C39.5944 27.3113 39.7781 26.9856 39.9291 26.843L38.5558 25.389ZM37.5944 28.06C37.5944 28.8642 37.7441 29.6322 38.1664 30.2465L39.8145 29.1135C39.7088 28.9598 39.5944 28.6478 39.5944 28.06H37.5944ZM38.1664 30.2465C38.6236 30.9115 39.309 31.256 40.1064 31.256V29.256C39.9439 29.256 39.8853 29.2165 39.8145 29.1135L38.1664 30.2465ZM57.6753 6.604H58.6753V5.49521L57.5724 5.60931L57.6753 6.604ZM57.6753 34V35H58.6753V34H57.6753ZM51.4113 34H50.4113V35H51.4113V34ZM51.4113 7.252L51.3084 6.25731L50.4113 6.35011V7.252H51.4113ZM68.7273 14.812L69.5983 15.3033L70.4395 13.812H68.7273V14.812ZM63.9753 23.236L63.1043 22.7447L62.8512 23.1934L63.0696 23.66L63.9753 23.236ZM69.0153 34V35H70.5877L69.9209 33.576L69.0153 34ZM62.2833 34L61.3633 34.392L61.6224 35H62.2833V34ZM57.8193 23.524L56.9444 23.0396L56.7079 23.4668L56.8993 23.916L57.8193 23.524ZM62.6433 14.812V13.812H62.0539L61.7684 14.3276L62.6433 14.812ZM56.6753 6.604V34H58.6753V6.604H56.6753ZM57.6753 33H51.4113V35H57.6753V33ZM52.4113 34V7.252H50.4113V34H52.4113ZM51.5142 8.24669L57.7782 7.59869L57.5724 5.60931L51.3084 6.25731L51.5142 8.24669ZM67.8563 14.3207L63.1043 22.7447L64.8463 23.7273L69.5983 15.3033L67.8563 14.3207ZM63.0696 23.66L68.1096 34.424L69.9209 33.576L64.8809 22.812L63.0696 23.66ZM69.0153 33H62.2833V35H69.0153V33ZM63.2032 33.608L58.7392 23.132L56.8993 23.916L61.3633 34.392L63.2032 33.608ZM58.6941 24.0084L63.5181 15.2964L61.7684 14.3276L56.9444 23.0396L58.6941 24.0084ZM62.6433 15.812H68.7273V13.812H62.6433V15.812ZM85.4195 34V35H86.4195V34H85.4195ZM79.9475 34L78.9544 34.1178L79.0591 35H79.9475V34ZM79.6955 31.876L80.6885 31.7582L80.3673 29.0508L78.8618 31.3238L79.6955 31.876ZM71.0195 33.1L70.2368 33.7226L70.2439 33.7313L71.0195 33.1ZM69.7595 14.812V13.812H68.7595V14.812H69.7595ZM76.0235 14.812H77.0235V13.812H76.0235V14.812ZM76.2755 29.68L75.4318 30.2169L75.4485 30.2431L75.4667 30.2682L76.2755 29.68ZM79.1555 28.312L80.0535 28.7519L80.1555 28.5437V28.312H79.1555ZM79.1555 14.812V13.812H78.1555V14.812H79.1555ZM85.4195 14.812H86.4195V13.812H85.4195V14.812ZM85.4195 33H79.9475V35H85.4195V33ZM80.9405 33.8822L80.6885 31.7582L78.7024 31.9938L78.9544 34.1178L80.9405 33.8822ZM78.8618 31.3238C77.8171 32.901 76.4336 33.648 74.6195 33.648V35.648C77.1253 35.648 79.1258 34.547 80.5292 32.4282L78.8618 31.3238ZM74.6195 33.648C73.3024 33.648 72.4114 33.226 71.795 32.4687L70.2439 33.7313C71.3075 35.038 72.8165 35.648 74.6195 35.648V33.648ZM71.8021 32.4775C71.1418 31.6475 70.7595 30.4737 70.7595 28.852H68.7595C68.7595 30.7823 69.2171 32.4405 70.2369 33.7225L71.8021 32.4775ZM70.7595 28.852V14.812H68.7595V28.852H70.7595ZM69.7595 15.812H76.0235V13.812H69.7595V15.812ZM75.0235 14.812V28.348H77.0235V14.812H75.0235ZM75.0235 28.348C75.0235 29.0064 75.1018 29.6983 75.4318 30.2169L77.1191 29.1431C77.1264 29.1546 77.097 29.1111 77.069 28.9631C77.0421 28.8206 77.0235 28.6193 77.0235 28.348H75.0235ZM75.4667 30.2682C75.8817 30.8388 76.4997 31.076 77.1395 31.076V29.076C77.0614 29.076 77.0407 29.0627 77.0521 29.0679C77.0576 29.0704 77.0657 29.0751 77.0739 29.0819C77.0819 29.0885 77.0851 29.0931 77.0842 29.0918L75.4667 30.2682ZM77.1395 31.076C78.5087 31.076 79.4349 30.0149 80.0535 28.7519L78.2574 27.8721C77.724 28.9611 77.3062 29.076 77.1395 29.076V31.076ZM80.1555 28.312V14.812H78.1555V28.312H80.1555ZM79.1555 15.812H85.4195V13.812H79.1555V15.812ZM84.4195 14.812V34H86.4195V14.812H84.4195Z" fill="#3F3F46"/>
<path d="M104.152 11.824L98.744 34H92.28L86.648 11.824H91.896L95.608 29.968L99.032 11.824H104.152ZM118.117 11.824L117.573 15.472H110.693V20.944H116.709V24.528H110.693V30.288H118.053V34H105.573V11.824H118.117ZM127.513 25.488H125.849V34H120.729V11.824H127.225C130.126 11.824 132.291 12.3893 133.721 13.52C135.15 14.6293 135.865 16.304 135.865 18.544C135.865 21.3813 134.617 23.376 132.121 24.528L137.145 34H131.545L127.513 25.488ZM125.849 21.936H127.417C128.526 21.936 129.337 21.6693 129.849 21.136C130.361 20.5813 130.617 19.7173 130.617 18.544C130.617 17.4773 130.339 16.6987 129.785 16.208C129.23 15.696 128.355 15.44 127.161 15.44H125.849V21.936ZM143.818 11.824V34H138.698V11.824H143.818ZM153.915 11.28C155.409 11.28 156.721 11.5253 157.851 12.016C159.003 12.4853 160.049 13.1893 160.987 14.128L158.651 16.816C157.265 15.6213 155.846 15.024 154.395 15.024C153.585 15.024 152.945 15.2267 152.475 15.632C152.006 16.0373 151.771 16.592 151.771 17.296C151.771 17.7653 151.878 18.16 152.091 18.48C152.305 18.8 152.678 19.1093 153.211 19.408C153.745 19.7067 154.534 20.048 155.579 20.432C156.945 20.944 158.043 21.4987 158.875 22.096C159.729 22.672 160.379 23.3973 160.827 24.272C161.275 25.1467 161.499 26.2347 161.499 27.536C161.499 28.9013 161.169 30.1173 160.507 31.184C159.867 32.2293 158.929 33.0507 157.691 33.648C156.475 34.2453 155.046 34.544 153.403 34.544C150.31 34.544 147.739 33.4987 145.691 31.408L148.187 28.624C148.977 29.3067 149.766 29.8293 150.555 30.192C151.366 30.5547 152.219 30.736 153.115 30.736C154.097 30.736 154.854 30.48 155.387 29.968C155.921 29.456 156.187 28.7733 156.187 27.92C156.187 27.1093 155.942 26.4587 155.451 25.968C154.961 25.4773 154.033 24.9867 152.667 24.496C150.449 23.664 148.87 22.7253 147.931 21.68C146.993 20.6347 146.523 19.3013 146.523 17.68C146.523 16.4213 146.843 15.312 147.483 14.352C148.123 13.3707 148.998 12.6133 150.107 12.08C151.238 11.5467 152.507 11.28 153.915 11.28ZM170.165 11.28C171.659 11.28 172.971 11.5253 174.101 12.016C175.253 12.4853 176.299 13.1893 177.237 14.128L174.901 16.816C173.515 15.6213 172.096 15.024 170.645 15.024C169.835 15.024 169.195 15.2267 168.725 15.632C168.256 16.0373 168.021 16.592 168.021 17.296C168.021 17.7653 168.128 18.16 168.341 18.48C168.555 18.8 168.928 19.1093 169.461 19.408C169.995 19.7067 170.784 20.048 171.829 20.432C173.195 20.944 174.293 21.4987 175.125 22.096C175.979 22.672 176.629 23.3973 177.077 24.272C177.525 25.1467 177.749 26.2347 177.749 27.536C177.749 28.9013 177.419 30.1173 176.757 31.184C176.117 32.2293 175.179 33.0507 173.941 33.648C172.725 34.2453 171.296 34.544 169.653 34.544C166.56 34.544 163.989 33.4987 161.941 31.408L164.437 28.624C165.227 29.3067 166.016 29.8293 166.805 30.192C167.616 30.5547 168.469 30.736 169.365 30.736C170.347 30.736 171.104 30.48 171.637 29.968C172.171 29.456 172.437 28.7733 172.437 27.92C172.437 27.1093 172.192 26.4587 171.701 25.968C171.211 25.4773 170.283 24.9867 168.917 24.496C166.699 23.664 165.12 22.7253 164.181 21.68C163.243 20.6347 162.773 19.3013 162.773 17.68C162.773 16.4213 163.093 15.312 163.733 14.352C164.373 13.3707 165.248 12.6133 166.357 12.08C167.488 11.5467 168.757 11.28 170.165 11.28ZM185.255 11.824V34H180.135V11.824H185.255ZM209.049 34H204.153L203.865 25.232C203.779 22.672 203.737 20.784 203.737 19.568C203.737 18.0747 203.758 16.976 203.801 16.272L200.889 31.664H196.089L193.017 16.272C193.102 17.8933 193.145 19.6107 193.145 21.424C193.145 22.2347 193.123 23.536 193.081 25.328L192.793 34H187.929L189.401 11.824H195.801L198.585 26.928L201.145 11.824H207.577L209.049 34ZM219.768 11.28C222.69 11.28 224.941 12.272 226.52 14.256C228.098 16.2187 228.888 19.0987 228.888 22.896C228.888 26.6507 228.088 29.5307 226.488 31.536C224.909 33.5413 222.669 34.544 219.768 34.544C216.866 34.544 214.616 33.552 213.016 31.568C211.437 29.584 210.648 26.6933 210.648 22.896C210.648 19.1627 211.437 16.2933 213.016 14.288C214.616 12.2827 216.866 11.28 219.768 11.28ZM219.768 15.024C218.466 15.024 217.506 15.632 216.888 16.848C216.29 18.064 215.992 20.08 215.992 22.896C215.992 25.7547 216.301 27.792 216.92 29.008C217.538 30.2027 218.488 30.8 219.768 30.8C221.069 30.8 222.018 30.2027 222.616 29.008C223.234 27.792 223.544 25.7547 223.544 22.896C223.544 20.08 223.234 18.064 222.616 16.848C222.018 15.632 221.069 15.024 219.768 15.024Z" fill="#3F3F46"/>
</svg>
