<svg width="272" height="272" viewBox="0 0 272 272" fill="none" xmlns="http://www.w3.org/2000/svg">
<path d="M151.228 36.882L144.679 42.176L144.721 42.2189L144.764 42.2611L151.228 36.882ZM151.228 157.537L144.645 152.278L144.602 152.323L151.228 157.537ZM37.2838 158.396L30.7353 163.69L30.7756 163.731L37.2838 158.396ZM37.2838 37.4552L30.7011 32.1962L30.6581 32.2416L37.2838 37.4552ZM78.0005 132.89L69.9072 135.952L69.9642 136.077L70.0264 136.2L78.0005 132.89ZM110.511 62.6752L102.498 65.9089L102.537 65.9853L110.511 62.6752ZM94.4135 23.9217C116.595 23.9217 132.963 30.2283 144.679 42.176L157.775 31.588C142.137 15.6408 120.629 8 94.4135 8V23.9217ZM144.764 42.2611C156.636 54.0209 163.292 72.0252 163.292 97.6392H180.827C180.827 69.7563 173.595 47.2558 157.69 31.5028L144.764 42.2611ZM163.292 97.6392C163.292 121.974 156.704 139.835 144.645 152.278L157.809 162.796C173.526 146.579 180.827 124.509 180.827 97.6392H163.292ZM144.602 152.323C132.862 164.623 116.517 171.07 94.4135 171.07V186.992C120.708 186.992 142.238 179.11 157.853 162.75L144.602 152.323ZM94.4135 171.07C71.9562 171.07 55.4818 164.82 43.7911 153.062L30.7756 163.731C46.4398 179.486 68.0528 186.992 94.4135 186.992V171.07ZM43.8314 153.103C32.0951 141.135 25.5352 122.984 25.5352 97.3527H8C8 125.218 15.1167 147.763 30.7353 163.69L43.8314 153.103ZM25.5352 97.3527C25.5352 72.99 32.0329 55.1115 43.9095 42.6687L30.6581 32.2416C15.1789 48.4579 8 70.511 8 97.3527H25.5352ZM43.8656 42.7141C55.829 30.37 72.313 23.9217 94.4135 23.9217V8C68.1168 8 46.5126 15.8812 30.7011 32.1962L43.8656 42.7141ZM94.4135 44.397C89.1494 44.397 84.1484 45.6525 79.8093 48.4332C75.536 51.1717 72.4638 55.0304 70.3043 59.4423L86.328 65.9081C87.5353 63.4418 88.8285 62.1418 89.9219 61.4412C90.9485 60.7829 92.3128 60.3187 94.4135 60.3187V44.397ZM70.3043 59.4423C66.1318 67.9659 64.4985 80.9947 64.4985 97.3527H82.0337C82.0337 81.2303 83.767 71.1407 86.328 65.9081L70.3043 59.4423ZM64.4985 97.3527C64.4985 114.224 66.0205 127.483 69.9072 135.952L86.0939 129.828C83.667 124.541 82.0337 114.108 82.0337 97.3527H64.4985ZM70.0264 136.2C72.2288 140.575 75.3808 144.358 79.733 147.017C84.1221 149.699 89.1486 150.881 94.4135 150.881V134.96C92.1033 134.96 90.6057 134.47 89.5247 133.809C88.4051 133.125 87.139 131.892 85.9738 129.58L70.0264 136.2ZM94.4135 150.881C99.6776 150.881 104.679 149.626 109.018 146.845C113.29 144.107 116.363 140.248 118.523 135.836L102.499 129.37C101.292 131.837 99.9976 133.137 98.9051 133.837C97.8785 134.496 96.5142 134.96 94.4135 134.96V150.881ZM118.523 135.836C122.699 127.305 124.329 114.173 124.329 97.6392H106.793C106.793 113.968 105.057 124.145 102.499 129.37L118.523 135.836ZM124.329 97.6392C124.329 80.962 122.711 67.7598 118.484 59.365L102.537 65.9853C105.043 70.9648 106.793 81.0719 106.793 97.6392H124.329ZM118.523 59.4423C116.363 55.0304 113.29 51.1717 109.018 48.4332C104.679 45.6525 99.6776 44.397 94.4135 44.397V60.3187C96.5142 60.3187 97.8785 60.7829 98.9051 61.4412C99.9976 62.1418 101.291 63.4426 102.498 65.9089L118.523 59.4423Z" fill="#FF5F00"/>
<path d="M266.859 108.811C267.149 107.899 266.986 106.903 266.421 106.131C265.856 105.359 264.957 104.902 264 104.902H207.28C205.878 104.902 204.663 105.874 204.354 107.241L181.804 207.078L153.883 107.096C153.521 105.799 152.34 104.902 150.994 104.902H101.975C101.02 104.902 100.122 105.357 99.5564 106.127C98.9912 106.897 98.8264 107.89 99.1125 108.801L148.132 264.899C148.524 266.149 149.683 267 150.994 267H214.411C215.718 267 216.875 266.154 217.27 264.908L266.859 108.811Z" fill="#FF5F00" stroke="#E4E4E7" stroke-width="6" stroke-linejoin="round"/>
</svg>
