<svg width="145" height="81" viewBox="0 0 145 81" fill="none" xmlns="http://www.w3.org/2000/svg">
<path d="M44.1749 16.792L43.428 17.457L43.4328 17.4624L43.4377 17.4677L44.1749 16.792ZM44.1749 31.948L43.4241 31.2874L43.4192 31.2931L44.1749 31.948ZM31.1789 32.056L30.432 32.721L30.4366 32.7261L31.1789 32.056ZM31.1789 16.864L30.4281 16.2034L30.4232 16.2091L31.1789 16.864ZM35.8589 20.032L36.7727 20.4381V20.4381L35.8589 20.032ZM35.8229 28.852L34.8998 29.2366L34.9063 29.2523L34.9134 29.2678L35.8229 28.852ZM39.5309 28.816L38.6171 28.4099L39.5309 28.816ZM39.5309 20.032L38.617 20.4382L38.6214 20.4478L39.5309 20.032ZM37.6949 15.164C40.2248 15.164 42.0917 15.9562 43.428 17.457L44.9217 16.127C43.1381 14.1238 40.6849 13.164 37.6949 13.164V15.164ZM43.4377 17.4677C44.7918 18.9449 45.5509 21.2065 45.5509 24.424H47.5509C47.5509 20.9215 46.726 18.0951 44.912 16.1163L43.4377 17.4677ZM45.5509 24.424C45.5509 27.4808 44.7996 29.7244 43.4242 31.2874L44.9256 32.6086C46.7182 30.5716 47.5509 27.7992 47.5509 24.424H45.5509ZM43.4192 31.2931C42.0802 32.8381 40.2159 33.648 37.6949 33.648V35.648C40.6939 35.648 43.1496 34.6579 44.9306 32.6029L43.4192 31.2931ZM37.6949 33.648C35.1335 33.648 33.2545 32.8629 31.9211 31.3859L30.4366 32.7261C32.2232 34.7051 34.6883 35.648 37.6949 35.648V33.648ZM31.9257 31.391C30.5871 29.8877 29.8389 27.6077 29.8389 24.388H27.8389C27.8389 27.8883 28.6506 30.7203 30.432 32.721L31.9257 31.391ZM29.8389 24.388C29.8389 21.3277 30.58 19.0819 31.9346 17.5189L30.4232 16.2091C28.6577 18.2461 27.8389 21.0163 27.8389 24.388H29.8389ZM31.9296 17.5246C33.2941 15.974 35.1742 15.164 37.6949 15.164V13.164C34.6956 13.164 32.2316 14.154 30.4282 16.2034L31.9296 17.5246ZM37.6949 17.736C37.0945 17.736 36.5241 17.8937 36.0292 18.243C35.5418 18.587 35.1914 19.0717 34.9451 19.6259L36.7727 20.4381C36.9104 20.1283 37.0579 19.965 37.1826 19.877C37.2997 19.7943 37.4553 19.736 37.6949 19.736V17.736ZM34.9451 19.6259C34.4692 20.6966 34.2829 22.3332 34.2829 24.388H36.2829C36.2829 22.3628 36.4806 21.0954 36.7727 20.4381L34.9451 19.6259ZM34.2829 24.388C34.2829 26.5073 34.4565 28.1728 34.8998 29.2366L36.746 28.4674C36.4692 27.8032 36.2829 26.4927 36.2829 24.388H34.2829ZM34.9134 29.2678C35.1646 29.8173 35.5241 30.2925 36.0205 30.6266C36.5211 30.9635 37.0944 31.112 37.6949 31.112V29.112C37.4314 29.112 37.2606 29.0505 37.1373 28.9674C37.0096 28.8815 36.8652 28.7267 36.7323 28.4362L34.9134 29.2678ZM37.6949 31.112C38.2953 31.112 38.8657 30.9543 39.3606 30.605C39.8479 30.261 40.1984 29.7763 40.4447 29.2221L38.6171 28.4099C38.4794 28.7197 38.3318 28.883 38.2072 28.971C38.0901 29.0537 37.9345 29.112 37.6949 29.112V31.112ZM40.4447 29.2221C40.921 28.1505 41.1069 26.5009 41.1069 24.424H39.1069C39.1069 26.4751 38.9088 27.7535 38.6171 28.4099L40.4447 29.2221ZM41.1069 24.424C41.1069 22.3291 40.9224 20.6707 40.4403 19.6162L38.6214 20.4478C38.9073 21.0733 39.1069 22.3429 39.1069 24.424H41.1069ZM40.4447 19.6259C40.1984 19.0717 39.8479 18.587 39.3606 18.243C38.8657 17.8937 38.2953 17.736 37.6949 17.736V19.736C37.9345 19.736 38.0901 19.7943 38.2072 19.877C38.3318 19.965 38.4794 20.1283 38.6171 20.4381L40.4447 19.6259ZM60.7397 33.1L61.3397 33.9L62.02 33.3898L61.6256 32.6363L60.7397 33.1ZM58.3637 34.252L58.0856 33.2914L58.0787 33.2935L58.3637 34.252ZM50.9477 32.92L50.196 33.5796L50.2028 33.5872L50.9477 32.92ZM49.3997 19.132H50.3997V18.132H49.3997V19.132ZM47.3117 19.132H46.3117V20.132H47.3117V19.132ZM47.3117 14.812V13.812H46.3117V14.812H47.3117ZM49.3997 14.812V15.812H50.3997V14.812H49.3997ZM49.3997 10.744L49.2798 9.7512L48.3997 9.85743V10.744H49.3997ZM55.6637 9.988H56.6637V8.86005L55.5438 8.9952L55.6637 9.988ZM55.6637 14.812H54.6637V15.812H55.6637V14.812ZM59.5517 14.812L60.5418 14.9523L60.7033 13.812H59.5517V14.812ZM58.9397 19.132V20.132H59.808L59.9298 19.2723L58.9397 19.132ZM55.6637 19.132V18.132H54.6637V19.132H55.6637ZM58.7237 29.248L59.6096 28.7843L59.1472 27.9007L58.2623 28.3608L58.7237 29.248ZM60.1397 32.3C59.5761 32.7226 58.8965 33.0567 58.0856 33.2914L58.6417 35.2126C59.6548 34.9193 60.5592 34.4854 61.3397 33.9L60.1397 32.3ZM58.0787 33.2935C57.2817 33.5304 56.4776 33.648 55.6637 33.648V35.648C56.6737 35.648 57.6696 35.5016 58.6486 35.2105L58.0787 33.2935ZM55.6637 33.648C53.7276 33.648 52.4729 33.1239 51.6925 32.2528L50.2028 33.5872C51.4864 35.0201 53.3757 35.648 55.6637 35.648V33.648ZM51.6993 32.2604C50.8777 31.3242 50.3997 29.9344 50.3997 27.952H48.3997C48.3997 30.2416 48.9536 32.1638 50.196 33.5796L51.6993 32.2604ZM50.3997 27.952V19.132H48.3997V27.952H50.3997ZM49.3997 18.132H47.3117V20.132H49.3997V18.132ZM48.3117 19.132V14.812H46.3117V19.132H48.3117ZM47.3117 15.812H49.3997V13.812H47.3117V15.812ZM50.3997 14.812V10.744H48.3997V14.812H50.3997ZM49.5195 11.7368L55.7835 10.9808L55.5438 8.9952L49.2798 9.7512L49.5195 11.7368ZM54.6637 9.988V14.812H56.6637V9.988H54.6637ZM55.6637 15.812H59.5517V13.812H55.6637V15.812ZM58.5615 14.6717L57.9495 18.9917L59.9298 19.2723L60.5418 14.9523L58.5615 14.6717ZM58.9397 18.132H55.6637V20.132H58.9397V18.132ZM54.6637 19.132V27.88H56.6637V19.132H54.6637ZM54.6637 27.88C54.6637 28.5912 54.7947 29.3079 55.2203 29.8645C55.6847 30.4717 56.3629 30.716 57.0677 30.716V28.716C56.9414 28.716 56.8777 28.6953 56.853 28.6846C56.8342 28.6764 56.8235 28.6685 56.809 28.6495C56.7666 28.5941 56.6637 28.3928 56.6637 27.88H54.6637ZM57.0677 30.716C57.7776 30.716 58.4891 30.4971 59.185 30.1352L58.2623 28.3608C57.7582 28.6229 57.3657 28.716 57.0677 28.716V30.716ZM57.8377 29.7117L59.8537 33.5637L61.6256 32.6363L59.6096 28.7843L57.8377 29.7117ZM77.2504 30.472L78.2057 30.7679L78.476 29.8952L77.6312 29.5473L77.2504 30.472ZM75.9904 34.54L75.9091 35.5367L76.7084 35.6019L76.9457 34.8359L75.9904 34.54ZM73.1104 33.82L72.6174 34.69L72.6344 34.6997L72.6518 34.7086L73.1104 33.82ZM71.3824 31.876L72.2817 31.4385L71.5075 29.8472L70.5437 31.3314L71.3824 31.876ZM62.0224 32.992L62.753 32.3091L62.0224 32.992ZM62.5984 23.812L63.2133 24.6006L63.2151 24.5992L62.5984 23.812ZM70.0864 22.12V23.12H71.0864V22.12H70.0864ZM69.5464 19.204L68.8169 19.8879L68.8169 19.8879L69.5464 19.204ZM63.0664 19.6L62.1212 19.9265L62.4506 20.88L63.4012 20.5423L63.0664 19.6ZM61.6984 15.64L61.2846 14.7296L60.4561 15.1063L60.7532 15.9665L61.6984 15.64ZM65.1184 14.56L65.3109 15.5413L65.3181 15.5399L65.3254 15.5383L65.1184 14.56ZM74.3704 15.856L73.6927 16.5914L73.7007 16.5986L74.3704 15.856ZM69.2224 29.86L68.6311 29.0536L68.6177 29.0634L68.6046 29.0737L69.2224 29.86ZM70.0864 28.816L70.9809 29.2632L71.0864 29.0521V28.816H70.0864ZM70.0864 25.468H71.0864V24.468H70.0864V25.468ZM67.2424 26.116L67.9291 26.843L67.9302 26.842L67.2424 26.116ZM66.9904 29.68L67.8145 29.1135V29.1135L66.9904 29.68ZM75.2064 28.384C75.2064 29.0607 75.2743 29.7277 75.528 30.2352L77.3169 29.3408C77.2826 29.2723 77.2064 29.0033 77.2064 28.384H75.2064ZM75.528 30.2352C75.8143 30.8077 76.3213 31.1709 76.8697 31.3967L77.6312 29.5473C77.3636 29.4371 77.3186 29.3443 77.3169 29.3408L75.528 30.2352ZM76.2952 30.1761L75.0352 34.2441L76.9457 34.8359L78.2057 30.7679L76.2952 30.1761ZM76.0718 33.5433C74.9775 33.454 74.1581 33.2354 73.5691 32.9314L72.6518 34.7086C73.5508 35.1726 74.6514 35.434 75.9091 35.5367L76.0718 33.5433ZM73.6035 32.95C73.0913 32.6597 72.6426 32.1804 72.2817 31.4385L70.4832 32.3135C70.9863 33.3476 71.6896 34.1642 72.6174 34.69L73.6035 32.95ZM70.5437 31.3314C69.5358 32.8837 68.118 33.648 66.1624 33.648V35.648C68.7669 35.648 70.8291 34.5643 72.2211 32.4206L70.5437 31.3314ZM66.1624 33.648C64.6677 33.648 63.568 33.181 62.753 32.3091L61.2919 33.6749C62.5409 35.011 64.2011 35.648 66.1624 35.648V33.648ZM62.753 32.3091C61.9263 31.4248 61.4744 30.2339 61.4744 28.636H59.4744C59.4744 30.6381 60.0546 32.3512 61.2919 33.6749L62.753 32.3091ZM61.4744 28.636C61.4744 26.7712 62.0847 25.4805 63.2133 24.6006L61.9836 23.0234C60.2802 24.3515 59.4744 26.2768 59.4744 28.636H61.4744ZM63.2151 24.5992C64.412 23.6616 66.2344 23.12 68.8264 23.12V21.12C65.9944 21.12 63.6649 21.7064 61.9818 23.0248L63.2151 24.5992ZM68.8264 23.12H70.0864V21.12H68.8264V23.12ZM71.0864 22.12V21.4H69.0864V22.12H71.0864ZM71.0864 21.4C71.0864 20.2928 70.9194 19.2064 70.276 18.5201L68.8169 19.8879C68.8934 19.9696 69.0864 20.3472 69.0864 21.4H71.0864ZM70.276 18.5201C69.6171 17.8172 68.5732 17.628 67.5304 17.628V19.628C68.4557 19.628 68.7558 19.8228 68.8169 19.8879L70.276 18.5201ZM67.5304 17.628C66.2127 17.628 64.6004 17.9938 62.7317 18.6577L63.4012 20.5423C65.1805 19.9102 66.5441 19.628 67.5304 19.628V17.628ZM64.0116 19.2735L62.6436 15.3135L60.7532 15.9665L62.1212 19.9265L64.0116 19.2735ZM62.1122 16.5504C63.0924 16.1049 64.1575 15.7675 65.3109 15.5413L64.926 13.5787C63.6314 13.8325 62.4165 14.2151 61.2846 14.7296L62.1122 16.5504ZM65.3254 15.5383C66.5156 15.2866 67.6217 15.164 68.6464 15.164V13.164C67.4631 13.164 66.2173 13.3054 64.9115 13.5816L65.3254 15.5383ZM68.6464 15.164C71.1219 15.164 72.733 15.7068 73.6928 16.5914L75.0481 15.1206C73.5599 13.7492 71.355 13.164 68.6464 13.164V15.164ZM73.7007 16.5986C74.6374 17.4434 75.2064 18.8473 75.2064 21.04H77.2064C77.2064 18.5287 76.5515 16.4766 75.0402 15.1134L73.7007 16.5986ZM75.2064 21.04V28.384H77.2064V21.04H75.2064ZM68.1064 31.256C68.7496 31.256 69.337 31.0417 69.8403 30.6463L68.6046 29.0737C68.4358 29.2063 68.2792 29.256 68.1064 29.256V31.256ZM69.8138 30.6664C70.3122 30.3009 70.6998 29.8254 70.9809 29.2632L69.192 28.3688C69.0411 28.6706 68.8526 28.8911 68.6311 29.0536L69.8138 30.6664ZM71.0864 28.816V25.468H69.0864V28.816H71.0864ZM70.0864 24.468H69.3664V26.468H70.0864V24.468ZM69.3664 24.468C68.2821 24.468 67.2739 24.7087 66.5547 25.39L67.9302 26.842C68.123 26.6593 68.5308 26.468 69.3664 26.468V24.468ZM66.5558 25.389C65.8428 26.0624 65.5944 27.0327 65.5944 28.06H67.5944C67.5944 27.3113 67.7781 26.9856 67.9291 26.843L66.5558 25.389ZM65.5944 28.06C65.5944 28.8642 65.7441 29.6322 66.1664 30.2465L67.8145 29.1135C67.7088 28.9598 67.5944 28.6478 67.5944 28.06H65.5944ZM66.1664 30.2465C66.6236 30.9115 67.309 31.256 68.1064 31.256V29.256C67.9439 29.256 67.8853 29.2165 67.8145 29.1135L66.1664 30.2465ZM85.6753 6.604H86.6753V5.49521L85.5724 5.60931L85.6753 6.604ZM85.6753 34V35H86.6753V34H85.6753ZM79.4113 34H78.4113V35H79.4113V34ZM79.4113 7.252L79.3084 6.25731L78.4113 6.35011V7.252H79.4113ZM96.7273 14.812L97.5983 15.3033L98.4395 13.812H96.7273V14.812ZM91.9753 23.236L91.1043 22.7447L90.8512 23.1934L91.0696 23.66L91.9753 23.236ZM97.0153 34V35H98.5877L97.9209 33.576L97.0153 34ZM90.2833 34L89.3633 34.392L89.6224 35H90.2833V34ZM85.8193 23.524L84.9444 23.0396L84.7079 23.4668L84.8993 23.916L85.8193 23.524ZM90.6433 14.812V13.812H90.0539L89.7684 14.3276L90.6433 14.812ZM84.6753 6.604V34H86.6753V6.604H84.6753ZM85.6753 33H79.4113V35H85.6753V33ZM80.4113 34V7.252H78.4113V34H80.4113ZM79.5142 8.24669L85.7782 7.59869L85.5724 5.60931L79.3084 6.25731L79.5142 8.24669ZM95.8563 14.3207L91.1043 22.7447L92.8463 23.7273L97.5983 15.3033L95.8563 14.3207ZM91.0696 23.66L96.1096 34.424L97.9209 33.576L92.8809 22.812L91.0696 23.66ZM97.0153 33H90.2833V35H97.0153V33ZM91.2032 33.608L86.7392 23.132L84.8993 23.916L89.3633 34.392L91.2032 33.608ZM86.6941 24.0084L91.5181 15.2964L89.7684 14.3276L84.9444 23.0396L86.6941 24.0084ZM90.6433 15.812H96.7273V13.812H90.6433V15.812ZM113.419 34V35H114.419V34H113.419ZM107.947 34L106.954 34.1178L107.059 35H107.947V34ZM107.695 31.876L108.689 31.7582L108.367 29.0508L106.862 31.3238L107.695 31.876ZM99.0195 33.1L98.2368 33.7226L98.2439 33.7313L99.0195 33.1ZM97.7595 14.812V13.812H96.7595V14.812H97.7595ZM104.023 14.812H105.023V13.812H104.023V14.812ZM104.275 29.68L103.432 30.2169L103.448 30.2431L103.467 30.2682L104.275 29.68ZM107.155 28.312L108.054 28.7519L108.155 28.5437V28.312H107.155ZM107.155 14.812V13.812H106.155V14.812H107.155ZM113.419 14.812H114.419V13.812H113.419V14.812ZM113.419 33H107.947V35H113.419V33ZM108.941 33.8822L108.689 31.7582L106.702 31.9938L106.954 34.1178L108.941 33.8822ZM106.862 31.3238C105.817 32.901 104.434 33.648 102.619 33.648V35.648C105.125 35.648 107.126 34.547 108.529 32.4282L106.862 31.3238ZM102.619 33.648C101.302 33.648 100.411 33.226 99.795 32.4687L98.2439 33.7313C99.3075 35.038 100.817 35.648 102.619 35.648V33.648ZM99.8021 32.4775C99.1418 31.6475 98.7595 30.4737 98.7595 28.852H96.7595C96.7595 30.7823 97.2171 32.4405 98.2369 33.7225L99.8021 32.4775ZM98.7595 28.852V14.812H96.7595V28.852H98.7595ZM97.7595 15.812H104.023V13.812H97.7595V15.812ZM103.023 14.812V28.348H105.023V14.812H103.023ZM103.023 28.348C103.023 29.0064 103.102 29.6983 103.432 30.2169L105.119 29.1431C105.126 29.1546 105.097 29.1111 105.069 28.9631C105.042 28.8206 105.023 28.6193 105.023 28.348H103.023ZM103.467 30.2682C103.882 30.8388 104.5 31.076 105.139 31.076V29.076C105.061 29.076 105.041 29.0627 105.052 29.0679C105.058 29.0704 105.066 29.0751 105.074 29.0819C105.082 29.0885 105.085 29.0931 105.084 29.0918L103.467 30.2682ZM105.139 31.076C106.509 31.076 107.435 30.0149 108.054 28.7519L106.257 27.8721C105.724 28.9611 105.306 29.076 105.139 29.076V31.076ZM108.155 28.312V14.812H106.155V28.312H108.155ZM107.155 15.812H113.419V13.812H107.155V15.812ZM112.419 14.812V34H114.419V14.812H112.419Z" fill="#FF5F00"/>
<path d="M18.152 50.824L12.744 73H6.28L0.648 50.824H5.896L9.608 68.968L13.032 50.824H18.152ZM32.1165 50.824L31.5725 54.472H24.6925V59.944H30.7085V63.528H24.6925V69.288H32.0525V73H19.5725V50.824H32.1165ZM41.5128 64.488H39.8488V73H34.7288V50.824H41.2248C44.1261 50.824 46.2914 51.3893 47.7208 52.52C49.1501 53.6293 49.8647 55.304 49.8647 57.544C49.8647 60.3813 48.6168 62.376 46.1208 63.528L51.1448 73H45.5448L41.5128 64.488ZM39.8488 60.936H41.4167C42.5261 60.936 43.3368 60.6693 43.8488 60.136C44.3608 59.5813 44.6168 58.7173 44.6168 57.544C44.6168 56.4773 44.3394 55.6987 43.7848 55.208C43.2301 54.696 42.3554 54.44 41.1608 54.44H39.8488V60.936ZM57.8175 50.824V73H52.6975V50.824H57.8175ZM67.9153 50.28C69.4086 50.28 70.7206 50.5253 71.8513 51.016C73.0033 51.4853 74.0486 52.1893 74.9873 53.128L72.6513 55.816C71.2646 54.6213 69.8459 54.024 68.3953 54.024C67.5846 54.024 66.9446 54.2267 66.4753 54.632C66.0059 55.0373 65.7713 55.592 65.7713 56.296C65.7713 56.7653 65.8779 57.16 66.0913 57.48C66.3046 57.8 66.6779 58.1093 67.2113 58.408C67.7446 58.7067 68.5339 59.048 69.5793 59.432C70.9446 59.944 72.0433 60.4987 72.8753 61.096C73.7286 61.672 74.3793 62.3973 74.8273 63.272C75.2753 64.1467 75.4993 65.2347 75.4993 66.536C75.4993 67.9013 75.1686 69.1173 74.5073 70.184C73.8673 71.2293 72.9286 72.0507 71.6913 72.648C70.4753 73.2453 69.0459 73.544 67.4033 73.544C64.3099 73.544 61.7393 72.4987 59.6913 70.408L62.1873 67.624C62.9766 68.3067 63.7659 68.8293 64.5553 69.192C65.3659 69.5547 66.2193 69.736 67.1153 69.736C68.0966 69.736 68.8539 69.48 69.3873 68.968C69.9206 68.456 70.1873 67.7733 70.1873 66.92C70.1873 66.1093 69.9419 65.4587 69.4513 64.968C68.9606 64.4773 68.0326 63.9867 66.6673 63.496C64.4486 62.664 62.8699 61.7253 61.9313 60.68C60.9926 59.6347 60.5233 58.3013 60.5233 56.68C60.5233 55.4213 60.8433 54.312 61.4833 53.352C62.1233 52.3707 62.9979 51.6133 64.1073 51.08C65.2379 50.5467 66.5073 50.28 67.9153 50.28ZM84.1653 50.28C85.6586 50.28 86.9706 50.5253 88.1013 51.016C89.2533 51.4853 90.2986 52.1893 91.2373 53.128L88.9013 55.816C87.5146 54.6213 86.0959 54.024 84.6453 54.024C83.8346 54.024 83.1946 54.2267 82.7253 54.632C82.2559 55.0373 82.0213 55.592 82.0213 56.296C82.0213 56.7653 82.1279 57.16 82.3413 57.48C82.5546 57.8 82.9279 58.1093 83.4613 58.408C83.9946 58.7067 84.7839 59.048 85.8293 59.432C87.1946 59.944 88.2933 60.4987 89.1253 61.096C89.9786 61.672 90.6293 62.3973 91.0773 63.272C91.5253 64.1467 91.7493 65.2347 91.7493 66.536C91.7493 67.9013 91.4186 69.1173 90.7573 70.184C90.1173 71.2293 89.1786 72.0507 87.9413 72.648C86.7253 73.2453 85.2959 73.544 83.6533 73.544C80.5599 73.544 77.9893 72.4987 75.9413 70.408L78.4373 67.624C79.2266 68.3067 80.0159 68.8293 80.8053 69.192C81.6159 69.5547 82.4693 69.736 83.3653 69.736C84.3466 69.736 85.1039 69.48 85.6373 68.968C86.1706 68.456 86.4373 67.7733 86.4373 66.92C86.4373 66.1093 86.1919 65.4587 85.7013 64.968C85.2106 64.4773 84.2826 63.9867 82.9173 63.496C80.6986 62.664 79.1199 61.7253 78.1813 60.68C77.2426 59.6347 76.7733 58.3013 76.7733 56.68C76.7733 55.4213 77.0933 54.312 77.7333 53.352C78.3733 52.3707 79.2479 51.6133 80.3573 51.08C81.4879 50.5467 82.7573 50.28 84.1653 50.28ZM99.255 50.824V73H94.135V50.824H99.255ZM123.049 73H118.153L117.865 64.232C117.779 61.672 117.737 59.784 117.737 58.568C117.737 57.0747 117.758 55.976 117.801 55.272L114.889 70.664H110.089L107.017 55.272C107.102 56.8933 107.145 58.6107 107.145 60.424C107.145 61.2347 107.123 62.536 107.081 64.328L106.793 73H101.929L103.401 50.824H109.801L112.585 65.928L115.145 50.824H121.577L123.049 73ZM133.768 50.28C136.69 50.28 138.941 51.272 140.52 53.256C142.098 55.2187 142.888 58.0987 142.888 61.896C142.888 65.6507 142.088 68.5307 140.488 70.536C138.909 72.5413 136.669 73.544 133.768 73.544C130.866 73.544 128.616 72.552 127.016 70.568C125.437 68.584 124.648 65.6933 124.648 61.896C124.648 58.1627 125.437 55.2933 127.016 53.288C128.616 51.2827 130.866 50.28 133.768 50.28ZM133.768 54.024C132.466 54.024 131.506 54.632 130.888 55.848C130.29 57.064 129.992 59.08 129.992 61.896C129.992 64.7547 130.301 66.792 130.92 68.008C131.538 69.2027 132.488 69.8 133.768 69.8C135.069 69.8 136.018 69.2027 136.616 68.008C137.234 66.792 137.544 64.7547 137.544 61.896C137.544 59.08 137.234 57.064 136.616 55.848C136.018 54.632 135.069 54.024 133.768 54.024Z" fill="#FF5F00"/>
</svg>
