<svg width="184" height="43" viewBox="0 0 184 43" fill="none" xmlns="http://www.w3.org/2000/svg">
<path d="M17.2558 11.608L18.0037 10.9443L18.0037 10.9443L17.2558 11.608ZM17.9398 26.764L17.0376 26.3325L17.0356 26.3368L17.9398 26.764ZM13.1518 32.056L13.6732 32.9093L13.6801 32.9051L13.1518 32.056ZM4.76375 35.08L3.80103 35.3505L4.05228 36.2446L4.9625 36.06L4.76375 35.08ZM3.53975 30.724L3.29335 29.7548L2.29968 30.0075L2.57703 30.9945L3.53975 30.724ZM9.87575 28.096L10.4713 28.8993L10.4736 28.8976L9.87575 28.096ZM12.8278 23.596L13.7897 23.8692L12.1079 22.9019L12.8278 23.596ZM10.7758 25.144L11.2105 26.0446L11.223 26.0384L10.7758 25.144ZM5.15975 24.676L4.58629 25.4952L4.59791 25.5034L4.60976 25.5112L5.15975 24.676ZM2.81975 21.832L1.91493 22.2578L1.91832 22.265L1.92183 22.2722L2.81975 21.832ZM3.07175 13.048L2.21138 12.5381L2.2045 12.5501L3.07175 13.048ZM6.20375 10.096L6.65744 10.9872L6.6636 10.984L6.20375 10.096ZM11.8558 20.896L11.2911 20.0707L11.2806 20.0779L11.2703 20.0853L11.8558 20.896ZM13.0798 19.564L13.9277 20.094L14.0755 19.8576L14.0796 19.5789L13.0798 19.564ZM12.8998 15.856L11.9088 15.9899L11.9108 16.0052L11.9134 16.0204L12.8998 15.856ZM12.1798 13.948L11.4272 14.6065L11.4385 14.6194L11.4502 14.6319L12.1798 13.948ZM8.86775 14.344L8.04992 13.7685L8.04556 13.7748L8.86775 14.344ZM10.7038 10.052C13.3518 10.052 15.2318 10.8337 16.5078 12.2717L18.0037 10.9443C16.2557 8.97425 13.7677 8.052 10.7038 8.052V10.052ZM16.5078 12.2717C17.8167 13.7468 18.5237 15.7913 18.5237 18.52H20.5237C20.5237 15.4407 19.7188 12.8772 18.0037 10.9443L16.5078 12.2717ZM18.5237 18.52C18.5237 21.7074 18.011 24.2972 17.0376 26.3325L18.8419 27.1955C19.9805 24.8148 20.5237 21.9086 20.5237 18.52H18.5237ZM17.0356 26.3368C16.0902 28.3375 14.6293 29.9588 12.6234 31.2069L13.6801 32.9051C15.9942 31.4652 17.7253 29.5585 18.8439 27.1912L17.0356 26.3368ZM12.6303 31.2027C10.5997 32.4436 7.92344 33.4189 4.565 34.1L4.9625 36.06C8.46806 35.3491 11.3838 34.3084 13.6732 32.9093L12.6303 31.2027ZM5.72647 34.8095L4.50247 30.4535L2.57703 30.9945L3.80103 35.3505L5.72647 34.8095ZM3.78615 31.6932C6.66956 30.9601 8.92695 30.0443 10.4713 28.8993L9.28019 27.2927C8.04055 28.2117 6.07394 29.0479 3.29335 29.7548L3.78615 31.6932ZM10.4736 28.8976C12.0905 27.6918 13.1867 25.9927 13.7897 23.8692L11.8658 23.3228C11.3648 25.0873 10.493 26.3882 9.27793 27.2944L10.4736 28.8976ZM12.1079 22.9019C11.5264 23.5049 10.9322 23.9478 10.3285 24.2496L11.223 26.0384C12.0593 25.6202 12.8331 25.0311 13.5476 24.2901L12.1079 22.9019ZM10.341 24.2434C9.80289 24.5032 9.1521 24.648 8.36375 24.648V26.648C9.39941 26.648 10.3566 26.4568 11.2105 26.0446L10.341 24.2434ZM8.36375 24.648C7.41192 24.648 6.5344 24.3839 5.70974 23.8408L4.60976 25.5112C5.7531 26.2641 7.01159 26.648 8.36375 26.648V24.648ZM5.73321 23.8568C4.93276 23.2965 4.25551 22.489 3.71767 21.3918L1.92183 22.2722C2.58399 23.623 3.46674 24.7115 4.58629 25.4952L5.73321 23.8568ZM3.72457 21.4062C3.22197 20.3382 2.95575 19.0722 2.95575 17.584H0.95575C0.95575 19.3117 1.26553 20.8778 1.91493 22.2578L3.72457 21.4062ZM2.95575 17.584C2.95575 16.0031 3.29478 14.6681 3.939 13.5459L2.2045 12.5501C1.36072 14.0199 0.95575 15.7089 0.95575 17.584H2.95575ZM3.93204 13.5578C4.60514 12.422 5.5094 11.5716 6.65743 10.9872L5.75007 9.20484C4.2581 9.96438 3.07436 11.082 2.21146 12.5382L3.93204 13.5578ZM6.6636 10.984C7.85245 10.3683 9.19243 10.052 10.7038 10.052V8.052C8.90307 8.052 7.24305 8.43166 5.7439 9.208L6.6636 10.984ZM10.4878 22.364C11.201 22.364 11.8585 22.1275 12.4412 21.7067L11.2703 20.0853C10.989 20.2885 10.7345 20.364 10.4878 20.364V22.364ZM12.4204 21.7213C13.0131 21.3158 13.511 20.7608 13.9277 20.094L12.2318 19.034C11.9285 19.5192 11.6104 19.8522 11.2911 20.0707L12.4204 21.7213ZM14.0796 19.5789C14.1039 17.9517 14.045 16.6448 13.8861 15.6916L11.9134 16.0204C12.0425 16.7952 12.1036 17.9603 12.0799 19.5491L14.0796 19.5789ZM13.8907 15.7221C13.7604 14.7578 13.4805 13.8733 12.9093 13.2641L11.4502 14.6319C11.599 14.7907 11.7991 15.1782 11.9088 15.9899L13.8907 15.7221ZM12.9323 13.2895C12.3576 12.6326 11.5565 12.372 10.7038 12.372V14.372C11.147 14.372 11.3299 14.4954 11.4272 14.6065L12.9323 13.2895ZM10.7038 12.372C9.59823 12.372 8.68617 12.8644 8.04994 13.7685L9.68556 14.9195C9.96133 14.5276 10.2733 14.372 10.7038 14.372V12.372ZM8.04556 13.7748C7.4385 14.6517 7.21975 15.8863 7.21975 17.296H9.21975C9.21975 16.0177 9.433 15.2843 9.68994 14.9132L8.04556 13.7748ZM7.21975 17.296C7.21975 18.7121 7.41145 19.9338 7.91332 20.834C8.17269 21.2992 8.52375 21.6939 8.98234 21.968C9.44228 22.243 9.95562 22.364 10.4878 22.364V20.364C10.2639 20.364 10.1157 20.3155 10.0087 20.2515C9.90025 20.1866 9.77881 20.0728 9.66018 19.86C9.40605 19.4042 9.21975 18.5919 9.21975 17.296H7.21975ZM35.31 9.592H36.31V8.592H35.31V9.592ZM35.31 13.768L36.244 14.1255L36.31 13.9528V13.768H35.31ZM27.318 34.648L27.0036 35.5973L27.9105 35.8976L28.252 35.0055L27.318 34.648ZM21.666 32.776L20.7347 32.4118L20.3507 33.3938L21.3516 33.7253L21.666 32.776ZM28.902 14.272L29.8334 14.6362L30.3668 13.272H28.902V14.272ZM20.298 14.272H19.298V15.272H20.298V14.272ZM20.298 9.592V8.592H19.298V9.592H20.298ZM34.31 9.592V13.768H36.31V9.592H34.31ZM34.3761 13.4105L26.3841 34.2905L28.252 35.0055L36.244 14.1255L34.3761 13.4105ZM27.6324 33.6987L21.9804 31.8267L21.3516 33.7253L27.0036 35.5973L27.6324 33.6987ZM22.5974 33.1402L29.8334 14.6362L27.9707 13.9078L20.7347 32.4118L22.5974 33.1402ZM28.902 13.272H20.298V15.272H28.902V13.272ZM21.298 14.272V9.592H19.298V14.272H21.298ZM20.298 10.592H35.31V8.592H20.298V10.592Z" fill="#FF5F00"/>
<path d="M50.448 33L49.456 28.168H43.824L42.832 33H37.648L43.632 10.824H49.776L55.728 33H50.448ZM44.592 24.488H48.688L46.64 14.568L44.592 24.488ZM72.783 33H66.383L60.943 15.592C60.9857 15.848 61.007 16.0613 61.007 16.232C61.199 17.768 61.3483 19.1653 61.455 20.424C61.5617 21.6613 61.615 23.1013 61.615 24.744V33H57.135V10.824H63.471L69.007 28.264C68.5377 25.4907 68.303 22.728 68.303 19.976V10.824H72.783V33ZM81.4113 10.824V33H76.2913V10.824H81.4113ZM105.205 33H100.309L100.021 24.232C99.9357 21.672 99.893 19.784 99.893 18.568C99.893 17.0747 99.9143 15.976 99.957 15.272L97.045 30.664H92.245L89.173 15.272C89.2583 16.8933 89.301 18.6107 89.301 20.424C89.301 21.2347 89.2797 22.536 89.237 24.328L88.949 33H84.085L85.557 10.824H91.957L94.741 25.928L97.301 10.824H103.733L105.205 33ZM120.46 10.824L119.916 14.472H113.036V19.944H119.052V23.528H113.036V29.288H120.396V33H107.916V10.824H120.46ZM134.849 10.824V28.936H142.561L142.017 33H129.729V10.824H134.849ZM149.724 10.824V33H144.604V10.824H149.724ZM159.822 10.28C161.315 10.28 162.627 10.5253 163.758 11.016C164.91 11.4853 165.955 12.1893 166.894 13.128L164.558 15.816C163.171 14.6213 161.752 14.024 160.302 14.024C159.491 14.024 158.851 14.2267 158.382 14.632C157.912 15.0373 157.678 15.592 157.678 16.296C157.678 16.7653 157.784 17.16 157.998 17.48C158.211 17.8 158.584 18.1093 159.118 18.408C159.651 18.7067 160.44 19.048 161.486 19.432C162.851 19.944 163.95 20.4987 164.782 21.096C165.635 21.672 166.286 22.3973 166.734 23.272C167.182 24.1467 167.406 25.2347 167.406 26.536C167.406 27.9013 167.075 29.1173 166.414 30.184C165.774 31.2293 164.835 32.0507 163.598 32.648C162.382 33.2453 160.952 33.544 159.31 33.544C156.216 33.544 153.646 32.4987 151.598 30.408L154.094 27.624C154.883 28.3067 155.672 28.8293 156.462 29.192C157.272 29.5547 158.126 29.736 159.022 29.736C160.003 29.736 160.76 29.48 161.294 28.968C161.827 28.456 162.094 27.7733 162.094 26.92C162.094 26.1093 161.848 25.4587 161.358 24.968C160.867 24.4773 159.939 23.9867 158.574 23.496C156.355 22.664 154.776 21.7253 153.838 20.68C152.899 19.6347 152.43 18.3013 152.43 16.68C152.43 15.4213 152.75 14.312 153.39 13.352C154.03 12.3707 154.904 11.6133 156.014 11.08C157.144 10.5467 158.414 10.28 159.822 10.28ZM183.056 10.824L182.512 14.728H177.744V33H172.624V14.728H167.568V10.824H183.056Z" fill="#FF5F00"/>
</svg>
